<?xml version="1.0" encoding="utf-8"?>
<!-- Generator: Adobe Illustrator 19.2.1, SVG Export Plug-In . SVG Version: 6.00 Build 0)  -->
<svg version="1.1" id="Layer_1" xmlns="http://www.w3.org/2000/svg" xmlns:xlink="http://www.w3.org/1999/xlink" x="0px" y="0px"
	 viewBox="0 0 72.6 48" style="enable-background:new 0 0 72.6 48;" xml:space="preserve">
<style type="text/css">
	.st0{fill:#E31837;}
</style>
<g>
	<g>
		<path d="M6.9,12.6H5.2v6.1H3.1v-15h4c2.1,0,4.2,1.3,4.2,4.4C11.3,11.1,9.2,12.6,6.9,12.6z M6.9,5.7H5.2v4.8H7
			c1.2,0,2.1-0.8,2.1-2.4C9.1,6.4,8.1,5.7,6.9,5.7z"/>
		<path d="M17.7,18.7v-0.8c-0.6,0.7-1.3,1-2.3,1c-1.7,0-3.1-1.2-3.1-3.8c0-2.4,1.5-3.7,3.7-3.7c0.7,0,1.3,0.2,1.7,0.4v-1.1
			c0-1.1-0.4-1.6-1.5-1.6c-0.7,0-1.4,0.2-2.2,0.7l-0.9-1.6c1-0.7,2.2-1.1,3.2-1.1c2.4,0,3.4,0.9,3.4,3.4v8.1H17.7z M17.7,13.7
			c-0.5-0.3-0.9-0.4-1.7-0.4c-1,0-1.6,0.6-1.6,1.8c0,1.3,0.5,2,1.4,2c0.9,0,1.5-0.4,1.9-1.1V13.7z"/>
		<path d="M25,18.9c-1.2,0-2.5-0.5-3.5-1.2l0.8-1.7c1,0.6,1.9,1,2.6,1c0.9,0,1.5-0.5,1.5-1.2c0-0.8-0.6-1.2-2.2-2.1
			c-1.4-0.8-2.3-1.5-2.3-3.3c0-2,1.2-3.1,3.2-3.1c1.1,0,2.2,0.4,3.1,1.1L27.4,10c-0.7-0.5-1.6-0.8-2.3-0.8c-0.8,0-1.1,0.4-1.1,1
			c0,0.7,0.3,1,1.8,1.9c1.7,1,2.7,1.7,2.7,3.6C28.5,17.7,27.2,18.9,25,18.9z"/>
		<path d="M33.3,18.9c-1.2,0-2.5-0.5-3.5-1.2l0.8-1.7c1,0.6,1.9,1,2.6,1c0.9,0,1.5-0.5,1.5-1.2c0-0.8-0.6-1.2-2.2-2.1
			c-1.4-0.8-2.3-1.5-2.3-3.3c0-2,1.2-3.1,3.2-3.1c1.1,0,2.2,0.4,3.1,1.1L35.7,10c-0.7-0.5-1.6-0.8-2.3-0.8c-0.8,0-1.1,0.4-1.1,1
			c0,0.7,0.3,1,1.8,1.9c1.7,1,2.7,1.7,2.7,3.6C36.8,17.7,35.5,18.9,33.3,18.9z"/>
		<path d="M42.8,18.9c-0.8,0-1.4-0.3-2-0.8v3.7l-2.1,1.1V7.4h2.1v0.8c0.5-0.6,1.1-1,2.1-1c2,0,3.4,1.5,3.4,6
			C46.4,16.9,45.1,18.9,42.8,18.9z M42.6,9.1c-0.7,0-1.3,0.4-1.7,1V16c0.5,0.7,1.1,1,1.8,1c1.1,0,1.6-1.1,1.6-3.7
			C44.3,10.3,43.7,9.1,42.6,9.1z"/>
		<path d="M52,18.9c-2.3,0-4-1.9-4-5.8c0-4,1.6-5.9,4.1-5.9c2.4,0,4,1.9,4,5.8C56.2,17,54.5,18.9,52,18.9z M52.1,9.1
			c-1.3,0-2,1.3-2,3.9s0.7,3.9,2,3.9c1.3,0,2-1.5,2-3.9C54.1,10.5,53.4,9.1,52.1,9.1z"/>
		<path d="M63.3,9.6c-0.4-0.2-0.8-0.3-1.4-0.3c-0.6,0-1.1,0.2-1.6,0.9v8.5h-2.1V7.4h2.1v0.8c0.5-0.6,1.2-1,2-1
			c0.7,0,1.2,0.2,1.5,0.4L63.3,9.6z"/>
		<path d="M70,18.4c-0.5,0.3-1.1,0.5-1.8,0.5c-1.5,0-2.2-1.1-2.2-2.9V9.3h-1.2V7.4H66V4.1L68,3v4.4h2.2v1.9H68v6.5
			c0,0.8,0.3,1.1,0.9,1.1c0.5,0,1-0.2,1.3-0.5L70,18.4z"/>
	</g>
	<g>
		<path class="st0" d="M12.1,34.3v10.4H8.7V34.4L2.3,21.4h3.9l2.2,4.8c0.5,1.2,1.7,4,1.9,4.8c0.2-0.8,1.4-3.7,1.9-4.9l2.1-4.8h3.8
			L12.1,34.3z"/>
		<path class="st0" d="M26.5,45c-5.2,0-7.4-5.2-7.4-11.9c0-6.7,2.2-12,7.5-12s7.5,5.2,7.5,11.9C34.1,39.7,31.7,45,26.5,45z
			 M26.5,24.3c-3,0-3.9,4.4-3.9,8.7c0,4.3,1,8.7,4,8.7c3,0,3.9-4.4,3.9-8.7C30.5,28.8,29.5,24.3,26.5,24.3z"/>
		<path class="st0" d="M48.2,44.6l-3.8-10.1h-2.9v10.1h-3.5V21.4h7c3.6,0,6.9,1.8,6.9,6.4c0,3.3-1.6,5.2-3.9,6.1l4,10.7H48.2z
			 M44.8,24.6h-3.2v6.8h3.2c2.2,0,3.6-1,3.6-3.4C48.4,25.6,46.9,24.6,44.8,24.6z"/>
		<path class="st0" d="M66.3,44.6L61.7,33l-2.1,3.1v8.5h-3.5V21.4h3.5v5.9c0,0.9,0,3-0.1,3.7c0.4-0.6,1.5-2.4,2-3.3l4.1-6.3h3.9
			l-5.4,8.1l5.9,15H66.3z"/>
	</g>
</g>
</svg>
